<svg width="90" height="90" viewBox="0 0 90 90" xmlns="http://www.w3.org/2000/svg">
    <path d="M0 0C1.57 1.07 1.57 1.07 2.57 3.07C1.47 2.71 1.47 2.71 0.34 2.34C-8.52 -0.24 -15.49 -0.49 -23.8 3.82C-30.3 9.39 -33.88 15.03 -34.8 23.51C-34.33 27.98 -33.63 32.1 -31.43 36.07C-28.64 37.58 -28.64 37.58 -25.43 38.07C-24.52 38.61 -23.61 39.14 -22.68 39.7C-18.18 41.6 -14.24 41.77 -9.43 41.07C-4.59 38.74 -1.76 35.91 0.57 31.07C1.37 26.14 1.22 21.64 -1.05 17.13C-4.22 13.05 -6.66 11.43 -11.82 10.76C-17.54 10.48 -20.98 11.17 -25.43 15.07C-27.26 17.18 -27.26 17.18 -28.43 19.07C-29.09 18.74 -29.75 18.41 -30.43 18.07C-27.87 11.75 -23.85 8.05 -18.05 4.7C-10.36 2.86 -5.18 4.14 1.57 8.07C1.24 9.06 0.91 10.05 0.57 11.07C1.79 12.55 3.02 14.04 4.29 15.48C7.62 19.61 8.03 24.58 7.88 29.7C7.11 35.6 4.68 40.41 0.32 44.45C-6.09 49.32 -11.72 50.7 -19.74 49.73C-23.29 48.86 -25.86 47.3 -28.77 45.13C-30.52 43.8 -30.52 43.8 -33.43 44.07C-38.05 42.39 -39.43 39.42 -41.44 35.12C-43.76 27.95 -43.61 20.06 -40.74 13.07C-32.71 -1.99 -15.54 -7.75 0 0Z" fill="#D22DE5" transform="translate(62.43 20.93)"/>
    <path d="M0 0C5.54 3.08 5.54 3.08 7 6C7.35 11.29 7.51 14.73 4 19C0.57 21.57 -2.84 21.5 -7 21C-10.58 18.94 -12.42 17.78 -13.7 13.84C-14.28 10.07 -14.25 7.63 -12.81 4.06C-9.05 -0.22 -5.63 -0.58 0 0ZM-1 5C-1.33 7.64 -1.66 10.28 -2 13C-3.98 13.33 -5.96 13.66 -8 14C-6.84 15.67 -6.84 15.67 -5 17C-2.23 16.86 -0.5 16.3 1.87 14.88C3.68 11.87 2.68 9.3 2 6C1.01 5.67 0.02 5.34 -1 5Z" fill="#D12CE3" transform="translate(51 36)"/>
</svg>
